<?xml version="1.0" encoding="UTF-8"?>
<svg width="36px" height="53px" viewBox="0 0 36 53" version="1.1" xmlns="http://www.w3.org/2000/svg" xmlns:xlink="http://www.w3.org/1999/xlink">
    <!-- Generator: Sketch 52.5 (67469) - http://www.bohemiancoding.com/sketch -->
    <title>marker_star_4</title>
    <desc>Created with Sketch.</desc>
    <g id="marker_star_4" stroke="none" stroke-width="0" fill="none" fill-rule="evenodd">
        <g id="Group-5-Copy-156" stroke="#000000">
            <path stroke="#fff" stroke-width="1"  d="M17.211881,52.1368389 C17.678869,52.6176353 18.334137,52.6166366 18.7788098,52.1396056 C20.2883907,46.7969636 22.7921522,42.0105484 26.7380053,36.1828962 C26.9687045,35.8421752 31.7383381,29.0423124 32.845243,27.2740637 C37.1361948,20.4193913 36.1695503,11.4208129 30.3743687,5.62563133 C23.5401936,-1.20854378 12.4598064,-1.20854378 5.62563133,5.62563133 C-0.191774457,11.4430371 -1.14160661,20.4858228 3.20043147,27.3466288 C3.92666836,28.4941476 4.73108631,29.6779233 5.8627875,31.2839639 C5.70886787,31.0655307 8.11503521,34.4592851 8.79074861,35.4328562 C13.1369248,41.6948476 15.6848464,46.4732501 17.211881,52.1368389 Z" id="Rectangle-Copy-17" fill="#55a3ec"></path>
            <circle cx="18" cy="18" r="6" fill="#fff"/>
        </g>
    </g>
</svg>