<?xml version="1.0" encoding="UTF-8"?>
<svg width="32px" height="47px" viewBox="0 0 32 47" version="1.1" xmlns="http://www.w3.org/2000/svg" xmlns:xlink="http://www.w3.org/1999/xlink">
    <!-- Generator: Sketch 52.5 (67469) - http://www.bohemiancoding.com/sketch -->
    <title>marker_star_3</title>
    <desc>Created with Sketch.</desc>
    <g id="marker_star_3" stroke="none" stroke-width="0" fill="none" fill-rule="evenodd">
        <g id="Group-5-Copy-155" stroke="#000000">
            <path stroke="#fff" stroke-width="1"  d="M15.3113147,46.1931939 C15.7065674,46.5854843 16.2935244,46.5845881 16.6693917,46.195992 C18.0142655,41.4432769 20.2326834,37.2214688 23.742271,32.0695938 C23.8210792,31.9539079 28.1544682,25.8023614 29.1486815,24.2141343 C32.9491997,18.1429156 32.0930254,10.1727152 26.9601551,5.03984489 C20.9070286,-1.01328163 11.0929714,-1.01328163 5.03984489,5.03984489 C-0.11270941,10.1923992 -0.953992588,18.2017548 2.89177208,24.2784047 C3.53513535,25.2949758 4.24909273,26.344021 5.2414077,27.7479909 C5.26585426,27.782579 7.2432249,30.559572 7.82307003,31.3906229 C11.6944882,36.9392519 13.9492881,41.1494234 15.3113147,46.1931939 Z" id="Rectangle-Copy-17" fill="#55a3ec"></path>
            <circle cx="16" cy="16" r="6" fill="#fff"/>
        </g>
    </g>
</svg>