<?xml version="1.0" encoding="UTF-8"?>
<svg width="40px" height="59px" viewBox="0 0 40 59" version="1.1" xmlns="http://www.w3.org/2000/svg" xmlns:xlink="http://www.w3.org/1999/xlink">
    <!-- Generator: Sketch 52.5 (67469) - http://www.bohemiancoding.com/sketch -->
    <title>marker_star_5</title>
    <desc>Created with Sketch.</desc>
    <g id="marker_star_5" stroke="none" stroke-width="0" fill="none" fill-rule="evenodd">
        <g id="Group-5-Copy-157" stroke="#000000">
            <path stroke="#fff" stroke-width="1"  d="M19.212693,58.0652059 C19.7366483,58.6332494 20.2784287,58.6321659 20.7779806,58.0679026 C22.4452891,52.160652 25.2406193,46.8389922 29.6525998,40.3489227 C29.8687551,40.030956 35.2977598,32.3213187 36.5418045,30.3339931 C41.32319,22.695867 40.2460751,12.6689106 33.7885822,6.21141777 C26.1733585,-1.40380592 13.8266415,-1.40380592 6.21141777,6.21141777 C-0.270839504,12.693675 -1.32922063,22.7698908 3.50909087,30.4148529 C4.32665143,31.7066712 5.23633422,33.0416292 6.52114446,34.8577593 C6.32965549,34.587082 9.07925662,38.4495101 9.84903862,39.5548848 C14.6876084,46.5028682 17.5297951,51.8163145 19.212693,58.0652059 Z" id="Rectangle-Copy-17" fill="#55a3ec"></path>
            <circle cx="20" cy="20" r="6" fill="#fff"/>
        </g>
    </g>
</svg>