<?xml version="1.0" encoding="UTF-8"?>
<svg width="28px" height="41px" viewBox="0 0 28 41" version="1.1" xmlns="http://www.w3.org/2000/svg" xmlns:xlink="http://www.w3.org/1999/xlink">
    <!-- Generator: Sketch 52.5 (67469) - http://www.bohemiancoding.com/sketch -->
    <title>marker_star_2</title>
    <desc>Created with Sketch.</desc>
    <g id="marker_star_2" stroke="none" stroke-width="0" fill="none" fill-rule="evenodd">
        <g id="Group-5-Copy-154" stroke="#000000">
            <path stroke="#fff" stroke-width="1"  d="M13.3197374,40.2684983 C13.6660498,40.577223 14.342357,40.5764625 14.6710025,40.2714327 C15.858819,36.0818053 17.786418,32.3933964 20.831442,27.899932 C20.9310571,27.7529327 24.5959723,22.5218762 25.45212,21.1542049 C28.7622045,15.8664399 28.0165006,8.92461752 23.5459415,4.45405845 C18.2738636,-0.818019485 9.72613639,-0.818019485 4.45405845,4.45405845 C-0.0336443631,8.94176127 -0.766378567,15.9176868 2.58311268,21.2101806 C3.13487573,22.0820153 3.74390388,22.9800598 4.58316414,24.1732883 C4.64635571,24.2631317 6.28256978,26.5719205 6.76678807,27.2683289 C10.1519335,32.1368844 12.1133609,35.8102568 13.3197374,40.2684983 Z" id="Rectangle-Copy-17" fill="#55a3ec"></path>
            <circle cx="14" cy="14" r="6" fill="#fff"/>
        </g>
    </g>
</svg>