<?xml version="1.0" encoding="UTF-8"?>
<svg width="24px" height="35px" viewBox="0 0 24 35" version="1.1" xmlns="http://www.w3.org/2000/svg" xmlns:xlink="http://www.w3.org/1999/xlink">
    <!-- Generator: Sketch 52.5 (67469) - http://www.bohemiancoding.com/sketch -->
    <title>marker_star_1</title>
    <desc>Created with Sketch.</desc>
    <g id="marker_star_1" stroke="none" stroke-width="0" fill="none" fill-rule="evenodd">
        <g id="Group-5-Copy-153" stroke="#000000">
            <path stroke="#fff" stroke-width="1" d="M11.4181565,34.3066618 C11.7013311,34.5317272 12.3045382,34.5311429 12.5726248,34.3097004 C13.5964979,30.708667 15.2371159,27.5889263 17.8458119,23.7726884 C17.760936,23.8968526 21.0128671,19.2807037 21.7555585,18.0942755 C24.5752093,13.5899642 23.9399758,7.67651981 20.131728,3.86827202 C15.6406986,-0.622757339 8.35930137,-0.622757339 3.86827202,3.86827202 C0.0454206839,7.69112335 -0.578764546,13.6336188 2.27445328,18.1419565 C2.38450614,18.3158498 2.49855567,18.4927974 2.61714779,18.6737647 C3.04720866,19.330022 3.51137455,20.0022758 4.15179067,20.9046417 C4.08179779,20.8060196 5.41818079,22.6799226 5.79448113,23.2163242 C8.71058485,27.3731174 10.3765338,30.468783 11.4181565,34.3066618 Z" id="Rectangle-Copy-17" fill="#55a3ec"></path>
            <circle cx="12" cy="12" r="6" fill="#fff"/>
        </g>
    </g>
</svg>